REM DIRINDEX 1\2,1\3,1\4,1\5\6,1\5\7,1\8
REM DIRNAME cjc115,folder01,folder02,folder03,folder04,folder05,folder06,folder07
TITLE ""
FILE "023 【023】Unit2 (0253 barren_0264 harvest).mp3" MP3
  TRACK 01 AUDIO
    TITLE "0:"
    INDEX 01 00:00:00
  TRACK 02 AUDIO
    TITLE "2:cjc115_0874"
    INDEX 01 00:00:05
  TRACK 03 AUDIO
    TITLE "0:"
    INDEX 01 00:01:21
  TRACK 04 AUDIO
    TITLE "3:cjc115_0875"
    INDEX 01 00:01:30
  TRACK 05 AUDIO
    TITLE "0:"
    INDEX 01 00:03:08
  TRACK 06 AUDIO
    TITLE "4:cjc115_0876"
    INDEX 01 00:03:29
  TRACK 07 AUDIO
    TITLE "0:"
    INDEX 01 00:07:64
  TRACK 08 AUDIO
    TITLE "2:cjc115_0877"
    INDEX 01 00:08:73
  TRACK 09 AUDIO
    TITLE "0:"
    INDEX 01 00:10:23
  TRACK 10 AUDIO
    TITLE "3:cjc115_0878"
    INDEX 01 00:10:29
  TRACK 11 AUDIO
    TITLE "0:"
    INDEX 01 00:12:44
  TRACK 12 AUDIO
    TITLE "4:cjc115_0879"
    INDEX 01 00:12:50
  TRACK 13 AUDIO
    TITLE "0:"
    INDEX 01 00:16:34
  TRACK 14 AUDIO
    TITLE "2:cjc115_0880"
    INDEX 01 00:17:45
  TRACK 15 AUDIO
    TITLE "0:"
    INDEX 01 00:18:62
  TRACK 16 AUDIO
    TITLE "3:cjc115_0881"
    INDEX 01 00:18:68
  TRACK 17 AUDIO
    TITLE "0:"
    INDEX 01 00:22:13
  TRACK 18 AUDIO
    TITLE "4:cjc115_0882"
    INDEX 01 00:22:25
  TRACK 19 AUDIO
    TITLE "0:"
    INDEX 01 00:26:22
  TRACK 20 AUDIO
    TITLE "2:cjc115_0883"
    INDEX 01 00:27:28
  TRACK 21 AUDIO
    TITLE "0:"
    INDEX 01 00:28:47
  TRACK 22 AUDIO
    TITLE "3:cjc115_0884"
    INDEX 01 00:28:55
  TRACK 23 AUDIO
    TITLE "0:"
    INDEX 01 00:30:73
  TRACK 24 AUDIO
    TITLE "4:cjc115_0885"
    INDEX 01 00:31:06
  TRACK 25 AUDIO
    TITLE "0:"
    INDEX 01 00:34:61
  TRACK 26 AUDIO
    TITLE "2:cjc115_0886"
    INDEX 01 00:35:72
  TRACK 27 AUDIO
    TITLE "0:"
    INDEX 01 00:37:24
  TRACK 28 AUDIO
    TITLE "3:cjc115_0887"
    INDEX 01 00:37:32
  TRACK 29 AUDIO
    TITLE "0:"
    INDEX 01 00:39:60
  TRACK 30 AUDIO
    TITLE "4:cjc115_0888"
    INDEX 01 00:39:70
  TRACK 31 AUDIO
    TITLE "0:"
    INDEX 01 00:44:56
  TRACK 32 AUDIO
    TITLE "2:cjc115_0889"
    INDEX 01 00:45:65
  TRACK 33 AUDIO
    TITLE "0:"
    INDEX 01 00:47:07
  TRACK 34 AUDIO
    TITLE "3:cjc115_0890"
    INDEX 01 00:47:15
  TRACK 35 AUDIO
    TITLE "0:"
    INDEX 01 00:48:59
  TRACK 36 AUDIO
    TITLE "4:cjc115_0891"
    INDEX 01 00:48:67
  TRACK 37 AUDIO
    TITLE "0:"
    INDEX 01 00:52:00
  TRACK 38 AUDIO
    TITLE "2:cjc115_0892"
    INDEX 01 00:53:09
  TRACK 39 AUDIO
    TITLE "0:"
    INDEX 01 00:54:36
  TRACK 40 AUDIO
    TITLE "3:cjc115_0893"
    INDEX 01 00:54:44
  TRACK 41 AUDIO
    TITLE "0:"
    INDEX 01 00:57:46
  TRACK 42 AUDIO
    TITLE "4:cjc115_0894"
    INDEX 01 00:57:54
  TRACK 43 AUDIO
    TITLE "0:"
    INDEX 01 01:01:34
  TRACK 44 AUDIO
    TITLE "2:cjc115_0895"
    INDEX 01 01:02:42
  TRACK 45 AUDIO
    TITLE "0:"
    INDEX 01 01:03:67
  TRACK 46 AUDIO
    TITLE "3:cjc115_0896"
    INDEX 01 01:04:01
  TRACK 47 AUDIO
    TITLE "0:"
    INDEX 01 01:06:67
  TRACK 48 AUDIO
    TITLE "4:cjc115_0897"
    INDEX 01 01:07:04
  TRACK 49 AUDIO
    TITLE "0:"
    INDEX 01 01:11:23
  TRACK 50 AUDIO
    TITLE "2:cjc115_0898"
    INDEX 01 01:12:34
  TRACK 51 AUDIO
    TITLE "0:"
    INDEX 01 01:13:53
  TRACK 52 AUDIO
    TITLE "3:cjc115_0899"
    INDEX 01 01:13:61
  TRACK 53 AUDIO
    TITLE "0:"
    INDEX 01 01:16:07
  TRACK 54 AUDIO
    TITLE "4:cjc115_0900"
    INDEX 01 01:16:16
  TRACK 55 AUDIO
    TITLE "0:"
    INDEX 01 01:20:08
  TRACK 56 AUDIO
    TITLE "2:cjc115_0901"
    INDEX 01 01:21:20
  TRACK 57 AUDIO
    TITLE "0:"
    INDEX 01 01:22:58
  TRACK 58 AUDIO
    TITLE "3:cjc115_0902"
    INDEX 01 01:22:64
  TRACK 59 AUDIO
    TITLE "0:"
    INDEX 01 01:24:65
  TRACK 60 AUDIO
    TITLE "4:cjc115_0903"
    INDEX 01 01:25:00
  TRACK 61 AUDIO
    TITLE "0:"
    INDEX 01 01:29:29
  TRACK 62 AUDIO
    TITLE "2:cjc115_0904"
    INDEX 01 01:30:40
  TRACK 63 AUDIO
    TITLE "0:"
    INDEX 01 01:31:47
  TRACK 64 AUDIO
    TITLE "3:cjc115_0905"
    INDEX 01 01:31:55
  TRACK 65 AUDIO
    TITLE "0:"
    INDEX 01 01:33:62
  TRACK 66 AUDIO
    TITLE "4:cjc115_0906"
    INDEX 01 01:33:72
  TRACK 67 AUDIO
    TITLE "0:"
    INDEX 01 01:36:60
  TRACK 68 AUDIO
    TITLE "2:cjc115_0907"
    INDEX 01 01:37:69
  TRACK 69 AUDIO
    TITLE "0:"
    INDEX 01 01:39:04
  TRACK 70 AUDIO
    TITLE "3:cjc115_0908"
    INDEX 01 01:39:14
  TRACK 71 AUDIO
    TITLE "0:"
    INDEX 01 01:40:54
  TRACK 72 AUDIO
    TITLE "4:cjc115_0909"
    INDEX 01 01:40:62
  TRACK 73 AUDIO
    TITLE "0:"
    INDEX 01 01:43:41
